<svg width="40" height="40" viewBox="0 0 40 40" fill="none" xmlns="http://www.w3.org/2000/svg">
<rect width="40" height="40" rx="4" fill="#FAFAFA"/>
<path d="M22.383 22.385C21.939 21.481 21.2107 20.883 20.198 20.591C19.1853 20.299 18.1387 20.1533 17.058 20.154C15.9833 20.154 14.9317 20.2996 13.903 20.591C12.8737 20.883 12.1503 21.481 11.733 22.385H22.383ZM17.058 19.154C17.6193 19.154 18.238 19.205 18.914 19.307C19.59 19.409 20.2367 19.583 20.854 19.829C21.4713 20.075 22.0157 20.405 22.487 20.819C22.9583 21.233 23.272 21.7606 23.428 22.402C23.4913 22.6506 23.441 22.8766 23.277 23.08C23.113 23.2833 22.901 23.385 22.641 23.385H11.474C11.214 23.385 11.002 23.2833 10.838 23.08C10.6733 22.8766 10.6227 22.6506 10.686 22.402C10.8433 21.7613 11.1583 21.2336 11.631 20.819C12.1037 20.4043 12.6483 20.0743 13.265 19.829C13.8823 19.5823 14.5283 19.4083 15.203 19.307C15.877 19.205 16.496 19.154 17.058 19.154ZM10.941 26.692C10.7997 26.692 10.681 26.644 10.585 26.548C10.489 26.4526 10.441 26.334 10.441 26.192C10.441 26.05 10.489 25.9313 10.585 25.836C10.681 25.7406 10.7997 25.6926 10.941 25.692H23.172C23.314 25.692 23.4327 25.74 23.528 25.836C23.6233 25.932 23.6713 26.051 23.672 26.193C23.6727 26.335 23.6247 26.4536 23.528 26.549C23.4313 26.6443 23.3127 26.692 23.172 26.692H10.941ZM26.99 30H26.174C26.0327 30 25.914 29.952 25.818 29.856C25.722 29.76 25.674 29.641 25.674 29.499C25.674 29.357 25.722 29.2383 25.818 29.143C25.914 29.0476 26.0327 29 26.174 29H27.074L28.474 15.385H19.95C19.8087 15.385 19.69 15.337 19.594 15.241C19.498 15.145 19.45 15.026 19.45 14.884C19.45 14.742 19.498 14.6233 19.594 14.528C19.69 14.4326 19.8087 14.385 19.95 14.385H23.942V10.885C23.942 10.743 23.99 10.624 24.086 10.528C24.182 10.432 24.301 10.384 24.443 10.384C24.585 10.384 24.7037 10.432 24.799 10.528C24.8943 10.624 24.942 10.7426 24.942 10.884V14.384H28.669C28.9117 14.384 29.115 14.4716 29.279 14.647C29.4443 14.8223 29.5103 15.031 29.477 15.273L28.062 29.089C28.0247 29.3643 27.9053 29.585 27.704 29.751C27.5027 29.917 27.264 30 26.988 30M10.943 30C10.801 30 10.682 29.952 10.586 29.856C10.49 29.76 10.442 29.641 10.442 29.499C10.442 29.357 10.49 29.2383 10.586 29.143C10.682 29.0476 10.8007 29 10.942 29H23.173C23.3143 29 23.433 29.048 23.529 29.144C23.625 29.24 23.673 29.359 23.673 29.501C23.673 29.643 23.625 29.7616 23.529 29.857C23.433 29.9523 23.3143 30 23.173 30H10.943Z" fill="#A8C1C3"/>
</svg>
