<svg width="40" height="40" viewBox="0 0 40 40" fill="none" xmlns="http://www.w3.org/2000/svg">
<rect width="40" height="40" rx="20" fill="#FAFAFA"/>
<path d="M17 24C17.24 24 17.425 23.786 17.795 23.358L21.482 19.081C23.375 16.887 24.322 15.789 23.902 14.895C23.482 14 22.021 14 19.099 14H14.901C11.98 14 10.516 14 10.098 14.895C9.68 15.79 10.625 16.887 12.517 19.081L16.205 23.358C16.574 23.786 16.76 24 17 24ZM17 24V30M16.5 14L16.099 11.594C16.0691 11.4148 15.9909 11.2471 15.8729 11.109C15.7548 10.9708 15.6014 10.8675 15.429 10.81L13 10M15.5 30H18.5" stroke="#A8C1C3" stroke-width="1.5" stroke-linecap="round" stroke-linejoin="round"/>
<path d="M23.86 16.833C24.1906 17.2008 24.5949 17.4948 25.0467 17.6959C25.4984 17.8969 25.9875 18.0006 26.482 18C27.4126 18.0021 28.3059 17.6346 28.9656 16.9783C29.6253 16.322 29.9974 15.4306 30 14.5C30 12.567 28.425 11 26.482 11C25.6379 10.9978 24.8212 11.2999 24.1817 11.8508C23.5422 12.4018 23.1226 13.1648 23 14" stroke="#A8C1C3" stroke-width="1.5" stroke-linecap="round" stroke-linejoin="round"/>
</svg>
