<svg width="40" height="40" viewBox="0 0 40 40" fill="none" xmlns="http://www.w3.org/2000/svg">
<rect width="40" height="40" rx="20" fill="#FAFAFA"/>
<path d="M17.885 28H22.077V26.862L22.635 26.669C23.9103 26.2743 24.9947 25.635 25.888 24.751C26.7813 23.867 27.3943 22.95 27.727 22H12.273C12.6063 22.95 13.2123 23.867 14.091 24.751C14.969 25.635 16.0477 26.2743 17.327 26.669L17.885 26.862V28ZM16.885 29V27.558C15.2937 27.0627 13.9697 26.2037 12.913 24.981C11.8557 23.7577 11.218 22.4307 11 21H13V12.75L29 11V11.904L18.423 13.069V15.173H29V16.058H18.423V21H29C28.808 22.4307 28.1707 23.7573 27.088 24.98C26.0047 26.204 24.6677 27.0633 23.077 27.558V29H16.885ZM16.154 15.173H17.539V13.161L16.154 13.306V15.173ZM13.884 15.173H15.27V13.403L13.886 13.561L13.884 15.173ZM16.155 21H17.54V16.058H16.153L16.155 21ZM13.885 21H15.27V16.058H13.884L13.885 21Z" fill="#A8C1C3"/>
</svg>
