<svg width="40" height="40" viewBox="0 0 40 40" fill="none" xmlns="http://www.w3.org/2000/svg">
<rect width="40" height="40" rx="20" fill="#FAFAFA"/>
<path d="M16.229 17.955C16.229 17.8224 16.2817 17.6952 16.3754 17.6014C16.4692 17.5077 16.5964 17.455 16.729 17.455H21.075C21.2076 17.455 21.3348 17.5077 21.4286 17.6014C21.5223 17.6952 21.575 17.8224 21.575 17.955V22.045C21.575 22.1776 21.5223 22.3048 21.4286 22.3986C21.3348 22.4923 21.2076 22.545 21.075 22.545H16.729C16.5964 22.545 16.4692 22.4923 16.3754 22.3986C16.2817 22.3048 16.229 22.1776 16.229 22.045V17.955ZM17.229 21.545H20.575V18.455H17.229V21.545ZM11.794 14.979C12.4 13.606 13.77 12.5 15.402 12.5H25.329C27.093 12.5 29.011 13.959 29.011 16.182C29.011 17.51 28.246 18.64 27.734 19.191C27.722 19.899 27.752 20.848 27.786 21.861L27.796 22.159C27.831 23.168 27.867 24.213 27.867 25.091C27.867 25.909 27.778 26.61 27.285 27.043C27.039 27.259 26.738 27.368 26.421 27.427C26.06 27.4845 25.6945 27.509 25.329 27.5H15.147C13.972 27.5 13.253 27.149 12.889 26.541C12.596 26.052 12.605 25.481 12.609 25.181L12.611 25.091V19.205C11.31 17.972 11.204 16.316 11.794 14.979ZM15.402 13.5C14.235 13.5 13.185 14.303 12.709 15.382C12.243 16.436 12.356 17.684 13.435 18.601C13.4901 18.6478 13.5343 18.7061 13.5647 18.7717C13.5951 18.8373 13.6109 18.9087 13.611 18.981V25.186C13.609 25.519 13.608 25.796 13.746 26.026C13.859 26.215 14.159 26.5 15.147 26.5H22.784C23.183 26.5 23.464 26.484 23.669 26.444C23.869 26.405 23.952 26.352 23.995 26.311C24.037 26.27 24.091 26.189 24.132 25.989C24.174 25.784 24.192 25.499 24.192 25.091C24.192 24.468 24.188 23.781 24.183 23.087C24.173 21.672 24.163 20.224 24.193 19.222C24.1964 19.0942 24.2486 18.9725 24.339 18.882C24.449 18.774 24.5523 18.6753 24.649 18.586C24.882 18.37 25.083 18.182 25.272 17.905C25.515 17.547 25.727 17.038 25.773 16.17C25.769 15.496 25.383 14.833 24.778 14.32C24.167 13.801 23.405 13.5 22.784 13.5H15.402ZM25.112 26.19C25.0907 26.2967 25.0617 26.4 25.025 26.5H25.329C25.727 26.5 26.019 26.484 26.239 26.443C26.456 26.403 26.563 26.346 26.625 26.292C26.745 26.186 26.867 25.932 26.867 25.091C26.867 24.231 26.832 23.204 26.797 22.191L26.787 21.894C26.749 20.796 26.717 19.729 26.738 18.967C26.742 18.8349 26.7981 18.7098 26.894 18.619C27.292 18.241 28.011 17.26 28.011 16.182C28.011 14.598 26.639 13.515 25.356 13.5L25.425 13.557C26.178 14.196 26.773 15.119 26.773 16.182V16.208C26.72 17.24 26.46 17.936 26.098 18.468C25.841 18.845 25.52 19.144 25.265 19.382L25.187 19.454C25.165 20.424 25.174 21.743 25.183 23.052C25.188 23.752 25.193 24.45 25.193 25.091C25.193 25.513 25.175 25.881 25.112 26.189" fill="#A8C1C3"/>
</svg>
